HIERARCHY
ROOT HipCenter
{
    OFFSET 0.0 0.0 -0.0
    CHANNELS 6 Xposition Yposition Zposition Zrotation Xrotation Yrotation
    JOINT Spine
    {
        OFFSET 0.0 20.93042755126953 0.0
        CHANNELS 3 Zrotation Xrotation Yrotation
        JOINT ShoulderCenter
        {
            OFFSET 0.0 27.76237678527832 0.0
            CHANNELS 3 Zrotation Xrotation Yrotation
            JOINT LeftShoulder
            {
                OFFSET 20.745866775512695 0.0 0.0
                CHANNELS 3 Zrotation Xrotation Yrotation
                JOINT LeftElbow
                {
                    OFFSET 25.892244338989258 0.0 0.0
                    CHANNELS 3 Zrotation Xrotation Yrotation
                    JOINT LeftWrist
                    {
                        OFFSET 27.919445037841797 0.0 0.0
                        CHANNELS 3 Zrotation Xrotation Yrotation
                        JOINT LeftHand
                        {
                            OFFSET 6.715752601623535 0.0 0.0
                            CHANNELS 3 Zrotation Xrotation Yrotation
                            End Site
                            {
                                OFFSET 2.6863009929656982 0.0 0.0
                            }
                        }
                    }
                }
            }
            JOINT RightShoulder
            {
                OFFSET -20.745866775512695 0.0 0.0
                CHANNELS 3 Zrotation Xrotation Yrotation
                JOINT RightElbow
                {
                    OFFSET -25.892244338989258 0.0 0.0
                    CHANNELS 3 Zrotation Xrotation Yrotation
                    JOINT RightWrist
                    {
                        OFFSET -27.919445037841797 0.0 0.0
                        CHANNELS 3 Zrotation Xrotation Yrotation
                        JOINT RightHand
                        {
                            OFFSET -6.715752601623535 0.0 0.0
                            CHANNELS 3 Zrotation Xrotation Yrotation
                            End Site
                            {
                                OFFSET -2.6863009929656982 0.0 0.0
                            }
                        }
                    }
                }
            }
            End Site
            {
                OFFSET 0.0 11.104948997497559 0.0
            }
        }
    }
    JOINT LeftHip
    {
        OFFSET 18.816516876220703 0.0 0.0
        CHANNELS 3 Zrotation Xrotation Yrotation
        JOINT LeftKnee
        {
            OFFSET 0.0 -56.94123840332031 0.0
            CHANNELS 3 Zrotation Xrotation Yrotation
            JOINT LeftAnkle
            {
                OFFSET 0.0 -42.67103576660156 0.0
                CHANNELS 3 Zrotation Xrotation Yrotation
                JOINT LeftFoot
                {
                    OFFSET 0.0 -16.821674346923828 0.0
                    CHANNELS 3 Zrotation Xrotation Yrotation
                    End Site
                    {
                        OFFSET 0.0 0.0 6.7286696434021
                    }
                }
            }
        }
    }
    JOINT RightHip
    {
        OFFSET -18.816516876220703 0.0 0.0
        CHANNELS 3 Zrotation Xrotation Yrotation
        JOINT RightKnee
        {
            OFFSET 0.0 -56.94123840332031 0.0
            CHANNELS 3 Zrotation Xrotation Yrotation
            JOINT RightAnkle
            {
                OFFSET 0.0 -42.67103576660156 0.0
                CHANNELS 3 Zrotation Xrotation Yrotation
                JOINT RightFoot
                {
                    OFFSET 0.0 -16.821674346923828 0.0
                    CHANNELS 3 Zrotation Xrotation Yrotation
                    End Site
                    {
                        OFFSET 0.0 0.0 6.7286696434021
                    }
                }
            }
        }
    }
}
MOTION
Frames: 9
Frame Time: 0.03333333333333333
-12.161999702453613 3.90559983253479 -270.639892578125 6.58796302775951 5.215239146444793 -174.7843732696295 7.433270407581643 -40.86458176520052 -0.4006010842936445 -2.818161275087296e-07 -3.0229950248776805e-07 -1.2210561784740426 -71.9591885351114 -16.330444113515007 13.609130771201697 -2.708680085865012e-06 -1.6588598121852963e-06 75.01564202239068 -179.99999690311353 -49.184731512746616 -158.23173575210268 0.0 0.0 3.379339349054986e-15 50.330749703291524 -11.01637384381861 -42.619993349104675 4.287904539066948e-06 -2.5551402056959286e-06 -97.52881264233555 -179.9999888975382 -18.736719097391898 179.78796818899323 6.3611093629270335e-15 1.5902773407317584e-15 -8.827812596100317e-32 10.22390630550097 5.8448879061417465 40.95029118967936 -20.29802604885618 -3.985113526337195 -0.7159199702943678 89.55574331405609 28.93946767959538 -68.83277789726503 -7.951386703658792e-16 -6.3611093629270335e-15 -4.4139062980501586e-32 9.89006404973066 3.6813944021631717 -41.159053695748064 7.557748288159919 -14.559909738634072 0.47642192270725053 -90.13865866714843 43.32984235737699 87.53074226531537 1.5902773407317584e-15 6.3611093629270335e-15 -8.827812596100317e-32
-13.831000328063965 6.3155999183654785 -270.4468078613281 6.044766069219082 6.166071916678867 -171.5355024353447 5.967288516140955 -40.623505397423685 -1.6440394624972334 1.7221367270784527e-07 2.998860698121889e-06 -2.9366763639075764 -74.12950885861495 -14.9196509837643 8.45174802429429 -9.472643879300365e-06 1.783092986920504e-08 81.89429011377901 179.9999975891708 -46.25959731521462 -158.6838033154424 6.3611093629270335e-15 1.1586504032381667e-31 2.087239009710433e-15 50.45547263087148 -12.224607350053935 -35.83949175806671 2.388946500113478e-06 2.0982243476176204e-06 -98.91328609557154 4.277759403044864e-05 -16.838323059308514 -0.05662598874687064 -1.3241718894150476e-31 4.770832022195274e-15 3.1805546814635164e-15 8.076520005962237 3.605168412709993 41.153492351163244 -16.493127486238585 -4.743353936107129 -0.8125835989877473 90.00009335607632 34.670673431518345 -73.27737203672508 0.0 0.0 1.5902773407317584e-15 9.486533870738327 4.6849376839908965 -41.05130808881877 4.820764681924727 -16.294552993524523 -0.621397150253779 -90.00028188150927 43.90073160537759 93.06306944814388 -1.5902773407317584e-15 6.3611093629270335e-15 -7.951386703658791e-16
-16.03219985961914 5.963799953460693 -270.8100891113281 3.5299835671131765 6.639474380808307 -171.03040561782123 5.209905339917216 -40.389299695688436 1.0032862192377654 2.0049969230009543e-07 1.960214120020224e-06 -3.3433841824593635 -73.16604232602299 -13.940147940807229 11.269519264570413 3.404970402837506e-07 -2.0443064381120454e-06 82.72864505323919 -179.99999702001608 -49.65510273247054 -143.90212905836935 0.0 7.951386703658792e-16 0.0 49.43391194478386 -13.883848692429337 -36.6531854647667 -1.404006647501938e-06 1.3301165650808366e-06 -87.75058944332169 179.99995092436384 -1.0856714469147621 179.70068503892566 6.3611093629270335e-15 1.5902773407317588e-15 6.3611093629270335e-15 4.115117874842634 3.6290772882892295 41.33095131932877 -15.70604864888298 -4.266618677764504 -0.7249167427981555 90.0223902931844 34.915381640602455 -73.53292683708428 -3.975693351829395e-16 6.3611093629270335e-15 -1.5902773407317584e-15 5.551493138724513 8.272743292578182 -41.02824402072113 7.08858393046193 -17.111337549226892 -0.08117820238781516 -90.00808180270609 43.61760107945184 90.39395075337548 0.0 -6.3611093629270335e-15 0.0
-18.233400344848633 5.6118998527526855 -271.17340087890625 0.9422352759828129 7.112495170266411 -170.3901453364846 4.31545059966941 -40.10547429141565 3.5747237434226236 -2.3239543388874637e-07 -3.4367055707737694e-06 -3.8168674720242555 -72.1712420085539 -12.690834621263317 14.034050482059763 2.702954333977146e-06 -1.7237930267388605e-06 83.62162882318532 179.99999740988602 -53.44757447038587 -129.19882576395355 0.0 -3.975693351829396e-16 0.0 48.660032438538686 -15.14091651413854 -37.41805415932292 1.7620579994558334e-06 -2.7554865628988238e-09 -76.53773826415474 179.99994684275765 1.834463982282137 179.39595744450267 0.0 0.0 0.0 0.09037465203912906 3.708659449016588 41.45772613026843 -14.905780452082233 -3.8004222225983173 -0.6392565412397322 89.99997918111656 35.16857930047035 -73.7433597858945 -3.9756933518293955e-16 0.0 0.0 1.580301587022154 11.910484792741919 -41.004553999642354 9.374495951393836 -17.92810129363586 0.5193227394175141 -90.00015275456326 43.31115025488657 87.6615435083285 0.0 0.0 1.5902773407317582e-15
-19.96179962158203 4.085599899291992 -271.2335205078125 -3.568366532530496 6.650213455626217 -169.22843725709382 -1.1404197802601959 -38.43226003395014 3.965445398495375 6.876315762387924e-07 3.01000285960876e-06 -4.543615614190621 -65.90489432247011 -12.040906425645169 16.06312729767397 -3.6962166469296507e-06 -1.359017541998976e-06 87.29399600207752 2.7740565369871933e-06 -69.69005104360282 34.432083248489114 -3.1805546814635168e-15 5.565970692561154e-15 -1.5902773407317582e-15 49.892565294373725 -19.134824610617876 -35.68209768036485 -1.8995536081254492e-06 6.444447114566382e-07 -65.64913012891216 -179.9999678457097 -86.42108312990713 155.28939689556597 -6.361109362927033e-15 -3.180554681463516e-15 -3.975693351829395e-15 -5.435582904514851 4.439067739536564 41.42634712131592 -16.328602882834925 -4.427749151216656 -0.7877384653099625 89.9797499911547 33.645773940580334 -72.1976793704684 -3.975693351829394e-16 -6.361109362927032e-15 1.590277340731758e-15 -4.3427312213968925 14.539769434936755 -40.81408434938888 13.157034474608915 -19.140920574612007 1.3699076030475728 -89.97813867036471 41.977142929551505 84.08754678910549 3.975693351829395e-16 6.3611093629270335e-15 1.5902773407317584e-15
-21.690099716186523 2.559299945831299 -271.2935791015625 -8.26223137735094 6.124428764616369 -168.01042575313934 -6.736516463633668 -36.62110147861912 4.327888705925333 4.89532670618458e-07 -6.384599714350999e-08 -5.238718220588405 -59.98707306038362 -10.390601300090534 17.805502592465817 -1.3089829710673418e-07 1.475817463357144e-06 91.05299864824087 2.487749169864073e-06 -4.6505734287540275 43.84166430609727 3.1805546814635176e-15 -8.827812596100317e-32 -3.1805546814635176e-15 51.64258235966714 -22.595076337995394 -33.72329575848567 -4.388993226826665e-06 3.6451641797523144e-06 -54.73566569592707 -179.99998468019442 -80.23144613270526 131.6003377950571 -6.3611093629270335e-15 3.975693351829395e-16 1.5902773407317584e-15 -11.14307993944578 5.316900824371996 41.344730323772474 -17.76121447653982 -5.02849483841283 -0.9431454026856122 90.0000222318162 32.09177755095265 -70.60213017461375 7.951386703658792e-16 5.517382872562698e-33 7.951386703658792e-16 -10.436751668807368 17.33178601337447 -40.57589922247445 16.977155106895935 -20.39704482476649 2.338971601423671 -90.00017322169789 40.66580819755611 80.43970629407735 -9.93923337957349e-16 -1.3793457181406746e-32 1.5902773407317584e-15
-20.039600372314453 2.4635000228881836 -270.4689025878906 -5.582542426498157 4.394552010239553 -171.68384496783702 -5.011453397592045 -39.31109794512019 3.4805381200419303 6.7039324209518e-07 3.998977981623463e-06 -3.8971060230997554 -54.09843811415073 -10.240278174021485 28.45524490766276 1.0211086742882548e-06 8.433781994720297e-06 96.9889912319275 -5.077588826770823e-06 -1.3691455998933666 32.46434842263136 3.180554681463516e-15 6.361109362927032e-15 -1.7655625192200634e-31 58.689578658495336 -21.1368184881289 -24.592962072492696 2.6659132861424297e-06 -4.98346261461726e-06 -55.36567208503296 -9.276887161347932e-06 -69.50365940611415 -28.575363957539157 2.2069531490250793e-32 -1.5902773407317584e-15 1.5902773407317584e-15 -8.124305736059886 1.703044827680643 41.536177575003485 -16.90460230378969 -4.0555512713110975 -0.7577898434158561 89.9912448215319 32.70321499906365 -70.9376880703767 3.975693351829396e-16 0.0 0.0 -7.30093733094275 12.55125487327215 -40.60943663628319 16.34652107599776 -19.002497643720393 2.3130803740602364 -90.04579210193923 40.650676206918796 79.87043561007562 -4.373262687012335e-15 0.0 0.0
-18.38909912109375 2.3677000999450684 -269.64410400390625 -3.0961883059259763 2.7731957973636825 -174.99786894923284 -3.349833290619786 -41.697006879847386 2.389093639369715 -1.0723442714950578e-07 -2.8587847508035543e-06 -2.556083347419217 -49.35042609303642 -8.335164560571245 39.11767473055296 9.652566433450266e-07 2.9366973268523895e-07 102.90078368031732 -3.921668357964243e-06 1.6399901659621596 21.00053024100204 -4.4139062980501586e-32 -1.5902773407317588e-15 -3.1805546814635176e-15 65.3848720617595 -18.5930696199095 -15.792740608690638 -5.313759005005295e-06 -3.619047674676784e-06 -56.10824243780308 -5.737036815953979e-07 -13.418831621614116 -30.714464787685465 9.54166404439055e-15 -6.620859447075238e-32 -7.951386703658792e-16 -4.934412764664341 -1.3898734897672358 41.65234405540942 -16.19478494056045 -3.0227679247977632 -0.5647639345369959 89.99976258883464 33.310315719063674 -71.22709105586252 7.951386703658792e-16 6.3611093629270335e-15 -1.5902773407317584e-15 -3.8813186995705014 8.339389428129165 -40.66661816030863 15.643124169982347 -17.71163213387411 2.274465298625714 -89.99982410308134 40.621935964092884 79.19381199533763 -2.1866313435061676e-15 3.034560579909484e-32 -1.5902773407317584e-15
-18.0398006439209 3.8865997791290283 -269.04998779296875 -4.252091958510133 1.953233394445983 -175.3208710722967 -4.952430016003618 -43.14411003853105 2.063605533063003 -1.0411951548942307e-08 -9.539393005386244e-07 -2.2243583481222635 -51.10231624941045 -8.592026332449377 36.38384846318305 -1.0710319953104754e-06 -1.8953143293431098e-06 107.02042434486653 -2.7246790658680132e-06 8.656096193762634 26.925722536417013 0.0 1.5902773407317584e-15 0.0 65.6699748949605 -19.1878608188308 -14.948882653744045 1.0672696822186767e-06 -9.611319971520156e-07 -60.53768044870033 -1.970183697962931e-06 -16.66089621194244 -30.56932024950306 -1.590277340731758e-15 -1.1034765745125397e-32 7.95138670365879e-16 -5.72238855498802 -2.5076024962831114 41.72388213955255 -15.872360154024781 -2.2514698422940174 -0.40521347826924375 89.99966918021083 33.15955756699892 -71.7950398976765 -5.963540027744093e-16 0.0 0.0 -4.471863627814141 5.736785785834387 -40.795385608138865 12.950707197555214 -16.109377864541027 1.717461092627647 -89.9925955605447 41.91404854333038 81.15906307392953 -6.460501696722769e-16 -8.965747167914385e-33 1.5902773407317584e-15
